<?xml version="1.0" standalone="no"?>
<!DOCTYPE svg PUBLIC "-//W3C//DTD SVG 20010904//EN"
 "http://www.w3.org/TR/2001/REC-SVG-20010904/DTD/svg10.dtd">
<svg version="1.0" xmlns="http://www.w3.org/2000/svg"
 width="240.000000pt" height="240.000000pt" viewBox="0 0 240.000000 240.000000"
 preserveAspectRatio="xMidYMid meet">

<g transform="translate(0.000000,240.000000) scale(0.100000,-0.100000)"
fill="#000000" stroke="none">
<path d="M803 2386 c-207 -40 -382 -135 -529 -288 -125 -130 -207 -279 -251
-454 -26 -106 -24 -332 5 -448 85 -338 354 -616 684 -706 247 -67 486 -40 718
81 l94 50 311 -311 310 -310 118 118 117 117 -310 310 -309 309 20 31 c11 16
37 64 58 105 191 373 120 825 -178 1121 -129 128 -286 218 -452 259 -109 27
-306 35 -406 16z m332 -291 c138 -36 287 -130 370 -233 302 -376 138 -933
-320 -1087 -267 -90 -583 6 -751 228 -56 73 -107 179 -129 262 -19 76 -19 241
1 325 56 237 263 447 500 504 80 20 255 20 329 1z"/>
</g>
</svg>
