<?xml version="1.0" standalone="no"?>
<!DOCTYPE svg PUBLIC "-//W3C//DTD SVG 20010904//EN"
 "http://www.w3.org/TR/2001/REC-SVG-20010904/DTD/svg10.dtd">
<svg version="1.0" xmlns="http://www.w3.org/2000/svg"
 width="240.000000pt" height="240.000000pt" viewBox="0 0 240.000000 240.000000"
 preserveAspectRatio="xMidYMid meet">

<g transform="translate(0.000000,240.000000) scale(0.100000,-0.100000)"
fill="#000000" stroke="none">
<path d="M383 2386 c-181 -44 -334 -202 -372 -384 -15 -74 -15 -1530 0 -1604
39 -187 200 -348 387 -387 74 -15 1530 -15 1604 0 187 39 348 200 387 387 15
74 15 1530 0 1604 -39 187 -200 348 -387 387 -79 16 -1549 14 -1619 -3z m1217
-536 l0 -150 -121 0 c-120 0 -121 0 -150 -29 -27 -27 -29 -35 -29 -100 l0 -71
151 0 151 0 -6 -52 c-3 -29 -9 -97 -12 -150 l-7 -98 -138 0 -139 0 0 -400 0
-400 -150 0 -150 0 0 400 0 400 -100 0 -100 0 0 150 0 150 99 0 99 0 4 148 c5
163 15 202 71 260 70 73 137 90 360 91 l167 1 0 -150z"/>
</g>
</svg>
