<?xml version="1.0" standalone="no"?>
<!DOCTYPE svg PUBLIC "-//W3C//DTD SVG 20010904//EN"
 "http://www.w3.org/TR/2001/REC-SVG-20010904/DTD/svg10.dtd">
<svg version="1.0" xmlns="http://www.w3.org/2000/svg"
 width="240.000000pt" height="240.000000pt" viewBox="0 0 240.000000 240.000000"
 preserveAspectRatio="xMidYMid meet">

<g transform="translate(0.000000,240.000000) scale(0.100000,-0.100000)"
fill="#000000" stroke="none">
<path d="M664 2390 c-201 -17 -341 -76 -459 -195 -123 -123 -176 -252 -195
-475 -13 -149 -13 -891 0 -1040 19 -223 72 -352 195 -475 123 -123 252 -176
475 -195 149 -13 891 -13 1040 0 209 17 349 72 462 179 107 100 168 221 199
391 20 108 20 1132 0 1240 -31 170 -92 291 -199 391 -113 107 -253 162 -462
179 -132 11 -920 11 -1056 0z m1180 -234 c173 -51 263 -143 313 -317 16 -59
18 -113 18 -639 0 -526 -2 -580 -18 -639 -50 -176 -142 -268 -318 -318 -59
-16 -113 -18 -639 -18 -526 0 -580 2 -639 18 -176 50 -268 142 -318 318 -16
59 -18 113 -18 639 0 526 2 580 18 639 57 202 176 300 397 331 30 5 300 7 600
6 485 -2 552 -5 604 -20z"/>
<path d="M1763 1960 c-87 -52 -83 -198 6 -245 98 -50 211 16 211 123 0 85 -56
142 -140 142 -27 0 -58 -8 -77 -20z"/>
<path d="M1114 1810 c-236 -36 -427 -199 -500 -424 -37 -115 -37 -257 0 -372
62 -192 208 -338 400 -400 115 -37 257 -37 372 0 139 45 254 133 334 258 125
192 125 464 0 656 -79 124 -196 214 -329 256 -86 27 -202 38 -277 26z m250
-248 c91 -42 149 -100 194 -190 35 -72 37 -81 37 -172 0 -91 -2 -100 -37 -172
-45 -91 -103 -147 -196 -191 -61 -29 -76 -32 -162 -32 -86 0 -101 3 -162 32
-93 44 -151 100 -196 191 -35 72 -37 81 -37 171 0 87 3 102 32 163 40 85 97
147 172 186 78 42 122 52 213 48 61 -3 92 -11 142 -34z"/>
</g>
</svg>
