<?xml version="1.0" standalone="no"?>
<!DOCTYPE svg PUBLIC "-//W3C//DTD SVG 20010904//EN"
 "http://www.w3.org/TR/2001/REC-SVG-20010904/DTD/svg10.dtd">
<svg version="1.0" xmlns="http://www.w3.org/2000/svg"
 width="1890.000000pt" height="1417.000000pt" viewBox="0 0 1890.000000 1417.000000"
 preserveAspectRatio="xMidYMid meet">

<g transform="translate(0.000000,1417.000000) scale(0.100000,-0.100000)"
fill="#000000" stroke="none">
<path d="M8778 14072 c-80 -208 -227 -379 -400 -466 -158 -79 -217 -90 -473
-90 -184 0 -240 3 -340 22 -177 32 -412 92 -755 192 -601 175 -803 220 -990
220 l-75 0 -80 -392 c-44 -216 -80 -402 -80 -413 0 -17 332 -90 4005 -875
3462 -740 4006 -854 4012 -841 8 17 168 775 168 796 0 15 -175 85 -295 118
-195 54 -335 78 -810 142 -496 66 -700 105 -910 172 -472 151 -727 419 -800
841 -8 47 -15 108 -15 136 0 92 1 90 -118 115 -259 55 -808 179 -1304 295
-463 109 -548 126 -620 126 l-83 0 -37 -98z"/>
<path d="M6000 7485 l0 -3335 3670 0 3670 0 0 3335 0 3335 -3670 0 -3670 0 0
-3335z m6528 -7 l-3 -2493 -2852 -3 -2853 -2 0 2495 0 2495 2855 0 2855 0 -2
-2492z"/>
<path d="M7957 9113 c-202 -113 -315 -306 -362 -618 -36 -244 -30 -515 25
-1125 53 -582 58 -852 19 -1076 -23 -130 18 -268 105 -362 85 -90 222 -135
344 -113 279 52 395 283 379 760 -3 91 -13 285 -23 429 -13 201 -15 288 -7
367 6 64 6 130 1 172 -11 77 -4 286 17 578 26 357 16 573 -35 727 -57 168
-187 280 -345 294 -44 4 -58 0 -118 -33z"/>
<path d="M9558 9131 c-72 -23 -117 -52 -160 -99 -142 -157 -173 -387 -134
-992 19 -298 19 -793 1 -1110 -8 -135 -16 -285 -18 -335 -6 -129 10 -341 33
-430 50 -197 164 -313 338 -345 62 -11 63 -11 135 27 109 57 204 156 261 274
83 172 114 330 123 619 6 214 -2 367 -48 880 -35 391 -47 750 -30 890 22 174
24 247 12 312 -28 140 -104 243 -219 296 -76 35 -210 41 -294 13z"/>
<path d="M11183 9136 c-134 -44 -227 -148 -264 -296 -21 -81 -21 -2628 0
-2710 44 -177 150 -281 321 -312 112 -21 247 21 338 106 97 91 147 229 161
451 9 139 8 172 -14 530 -19 309 -19 872 1 1145 19 256 21 558 5 655 -47 285
-186 433 -416 441 -58 3 -105 -1 -132 -10z"/>
<path d="M0 3245 l0 -195 9450 0 9450 0 0 195 0 195 -9450 0 -9450 0 0 -195z"/>
<path d="M6114 2341 c-274 -74 -477 -302 -593 -666 -159 -494 -71 -1080 210
-1414 74 -87 123 -125 224 -172 165 -78 351 -106 495 -75 92 20 216 79 293
140 177 142 324 431 383 751 28 153 26 482 -5 625 -59 278 -166 487 -324 636
-77 73 -151 112 -297 159 -116 37 -282 44 -386 16z m308 -449 c39 -19 93 -59
135 -99 68 -66 71 -70 82 -135 37 -217 45 -310 45 -543 1 -217 -1 -249 -22
-330 -29 -115 -85 -220 -141 -262 -99 -76 -288 -96 -383 -40 -160 94 -251 326
-251 647 -1 315 81 581 219 716 93 91 195 106 316 46z"/>
<path d="M16735 2346 c-420 -97 -705 -621 -682 -1256 13 -380 136 -694 350
-896 78 -74 163 -118 306 -160 364 -105 684 53 879 434 216 421 224 1010 21
1413 -98 196 -209 317 -352 384 -51 24 -126 53 -167 65 -96 28 -270 35 -355
16z m290 -452 c33 -16 92 -60 133 -99 l74 -70 14 -80 c61 -348 68 -670 18
-875 -52 -214 -176 -319 -375 -320 -135 0 -226 63 -302 208 -64 122 -97 285
-97 476 0 390 144 723 340 787 45 15 134 3 195 -27z"/>
<path d="M14842 2335 c-236 -43 -436 -147 -584 -304 -239 -254 -235 -555 12
-810 36 -36 90 -85 120 -108 52 -39 61 -42 175 -57 346 -47 592 -154 659 -287
31 -62 32 -99 7 -154 -49 -108 -219 -184 -412 -185 -180 0 -400 71 -568 184
-29 20 -57 36 -61 36 -12 0 -191 -333 -186 -347 9 -23 101 -83 211 -138 202
-100 371 -132 645 -122 169 7 291 28 405 71 289 110 450 345 414 604 -12 88
-23 122 -71 214 -101 195 -307 366 -573 473 -99 40 -324 101 -411 111 -50 6
-56 10 -69 39 -104 250 74 403 423 364 175 -19 334 -74 430 -147 24 -18 45
-32 45 -30 1 2 41 82 89 180 l87 176 -45 41 c-181 168 -472 245 -742 196z"/>
<path d="M1408 2313 l-128 -4 0 -1128 0 -1128 188 -9 c290 -14 570 -10 682 10
500 90 725 379 755 971 4 73 2 198 -4 285 -6 85 -14 200 -17 255 -6 137 -29
235 -75 331 -101 213 -308 342 -644 400 -92 17 -479 25 -757 17z m637 -413
c230 -26 347 -102 390 -255 8 -29 19 -152 26 -295 29 -593 -51 -800 -336 -875
-70 -18 -246 -31 -357 -27 l-78 4 0 723 0 724 48 4 c100 8 221 6 307 -3z"/>
<path d="M7903 2313 l-293 -3 0 -1129 0 -1129 378 -4 c429 -4 673 4 782 27
101 21 208 75 280 142 218 202 225 624 14 852 -59 64 -148 117 -216 127 -42 7
-52 24 -14 24 13 0 55 16 94 35 244 122 335 472 196 754 -68 138 -200 236
-370 274 -84 19 -331 38 -464 35 -52 -2 -227 -4 -387 -5z m553 -403 c230 -21
324 -102 312 -270 -9 -118 -67 -179 -208 -217 -70 -19 -330 -24 -462 -9 l-68
8 0 239 0 239 33 1 c53 3 271 15 282 17 6 1 55 -3 111 -8z m40 -901 c206 -28
292 -101 302 -254 9 -144 -51 -233 -187 -276 -79 -26 -264 -35 -455 -24 l-126
7 0 268 0 269 53 5 c139 16 321 18 413 5z"/>
<path d="M4066 2302 c-3 -6 -714 -1896 -817 -2175 l-29 -77 227 2 226 3 60
178 60 177 407 0 407 0 63 -180 62 -180 225 0 c124 0 223 4 221 9 -1 4 -192
513 -423 1130 l-420 1121 -132 0 c-72 0 -134 -3 -137 -8z m267 -1092 c70 -204
127 -375 127 -380 0 -6 -97 -10 -260 -10 -143 0 -260 3 -260 8 0 15 255 752
261 752 3 0 63 -167 132 -370z"/>
<path d="M9684 2198 c4 -63 0 -270 -9 -468 -34 -802 -6 -1105 128 -1365 79
-152 179 -227 398 -299 343 -112 598 -78 780 104 257 257 359 783 329 1698 -5
169 -10 337 -10 375 l0 67 -212 -2 -213 -3 -9 -80 c-7 -57 -4 -173 10 -405 23
-388 25 -805 5 -935 -35 -228 -102 -355 -219 -412 -53 -26 -65 -28 -178 -27
-111 0 -126 3 -177 28 -204 99 -266 418 -222 1141 23 387 28 535 21 618 l-8
77 -210 0 -210 0 6 -112z"/>
<path d="M11810 1180 l0 -1130 200 0 200 0 2 807 3 807 387 -805 387 -804 261
-3 260 -2 0 1130 0 1130 -200 0 -200 0 0 -822 c0 -506 -4 -818 -9 -812 -5 5
-183 374 -395 819 l-385 810 -255 3 -256 2 0 -1130z"/>
</g>
</svg>
