<?xml version="1.0" standalone="no"?>
<!DOCTYPE svg PUBLIC "-//W3C//DTD SVG 20010904//EN"
 "http://www.w3.org/TR/2001/REC-SVG-20010904/DTD/svg10.dtd">
<svg version="1.0" xmlns="http://www.w3.org/2000/svg"
 width="1890.000000pt" height="1417.000000pt" viewBox="0 0 1890.000000 1417.000000"
 preserveAspectRatio="xMidYMid meet">

<g transform="translate(0.000000,1417.000000) scale(0.100000,-0.100000)"
fill="#000000" stroke="none">
<path d="M15535 14160 c-725 -61 -1341 -328 -1819 -790 -374 -361 -655 -862
-799 -1425 -68 -263 -101 -501 -118 -835 -15 -303 -7 -2934 10 -3085 46 -421
121 -742 243 -1045 307 -759 844 -1302 1578 -1593 698 -278 1631 -285 2353
-17 237 88 507 236 709 388 613 462 1017 1202 1132 2072 34 251 36 363 36
1840 0 1475 -2 1587 -36 1840 -126 964 -601 1755 -1326 2209 -371 232 -750
362 -1243 427 -136 18 -571 26 -720 14z m470 -1660 c188 -22 330 -62 480 -137
424 -211 689 -632 745 -1182 6 -67 10 -602 10 -1515 0 -1526 0 -1542 -54
-1761 -120 -491 -431 -849 -866 -995 -237 -80 -558 -97 -817 -44 -594 121
-996 597 -1073 1269 -6 58 -10 612 -10 1545 0 1198 3 1474 15 1561 86 646 469
1101 1035 1228 173 39 364 50 535 31z"/>
<path d="M290 9671 l0 -4411 1383 0 c1366 0 1667 6 1922 35 303 35 608 103
850 189 172 62 461 206 610 303 748 492 1162 1259 1245 2307 14 175 14 2986 0
3167 -39 511 -151 939 -344 1317 -407 795 -1156 1293 -2176 1447 -318 48 -294
48 -1937 52 l-1553 4 0 -4410z m3140 2785 c291 -47 496 -124 693 -259 273
-186 455 -471 527 -827 39 -193 41 -282 37 -1785 -3 -1435 -4 -1451 -25 -1562
-127 -659 -556 -1044 -1272 -1139 -119 -16 -219 -18 -835 -19 l-700 0 -3 2808
-2 2808 737 -4 c637 -3 752 -6 843 -21z"/>
<path d="M9017 14038 c-8 -24 -722 -2004 -1586 -4400 -864 -2397 -1571 -4362
-1571 -4368 0 -7 270 -10 840 -10 l839 0 233 708 234 707 1523 0 1523 0 233
-705 233 -705 841 -3 c463 -1 841 1 841 5 0 5 -714 1989 -1587 4411 l-1587
4402 -497 0 -497 0 -15 -42z m1007 -4251 c269 -815 491 -1488 494 -1494 3 -10
-199 -13 -988 -13 -940 0 -992 1 -987 18 20 74 983 2972 987 2972 3 0 225
-667 494 -1483z"/>
<path d="M0 4290 l0 -310 9450 0 9450 0 0 310 0 310 -9450 0 -9450 0 0 -310z"/>
<path d="M13430 3293 c-713 -51 -1146 -302 -1272 -740 -20 -68 -23 -101 -23
-253 0 -194 15 -271 75 -390 88 -175 293 -329 544 -409 131 -42 396 -95 636
-126 478 -63 609 -89 718 -144 127 -64 182 -143 182 -261 0 -156 -115 -268
-342 -334 -128 -37 -254 -50 -468 -50 -393 1 -721 76 -1038 235 l-153 77 -52
-71 c-215 -296 -304 -423 -301 -429 3 -4 44 -29 92 -56 416 -234 981 -356
1567 -339 732 21 1216 236 1395 618 55 118 73 207 73 369 0 248 -54 393 -202
541 -212 211 -440 292 -1152 408 -169 28 -355 62 -415 76 -271 64 -409 195
-391 370 22 214 277 328 732 328 321 1 589 -62 914 -215 58 -26 108 -45 111
-41 14 16 309 479 315 494 6 17 -101 72 -278 143 -387 156 -853 229 -1267 199z"/>
<path d="M17180 3293 c-106 -8 -273 -36 -375 -63 -283 -75 -493 -194 -667
-379 -96 -103 -167 -215 -214 -339 -67 -180 -67 -179 -71 -802 -5 -607 -1
-687 43 -839 55 -189 143 -331 294 -474 207 -195 483 -319 835 -374 139 -22
514 -24 655 -4 356 50 651 180 858 375 188 178 300 397 331 651 15 121 15
1089 0 1210 -71 577 -558 968 -1289 1034 -107 10 -296 12 -400 4z m434 -632
c237 -63 398 -216 442 -420 11 -52 14 -178 14 -591 0 -413 -3 -539 -14 -591
-44 -205 -201 -354 -442 -421 -115 -31 -383 -31 -499 0 -130 36 -220 85 -300
166 -77 78 -116 147 -140 248 -22 93 -22 1103 0 1196 53 223 232 376 502 427
111 21 332 14 437 -14z"/>
<path d="M0 1650 l0 -1621 983 4 c848 3 997 6 1093 20 465 70 758 254 882 556
62 150 70 393 18 546 -46 134 -121 239 -229 321 -123 93 -349 182 -508 200
-58 6 -83 24 -35 24 13 0 77 13 142 30 413 104 637 368 610 720 -29 390 -286
652 -745 761 -212 51 -234 52 -1253 56 l-958 4 0 -1621z m1834 1015 c113 -20
203 -61 260 -119 53 -55 76 -116 76 -202 0 -171 -117 -297 -315 -339 -56 -12
-168 -15 -572 -15 l-503 0 0 345 0 345 484 0 c387 0 501 -3 570 -15z m69
-1293 c155 -43 244 -109 295 -221 33 -71 36 -187 8 -271 -24 -69 -107 -155
-188 -193 -125 -59 -137 -60 -710 -64 l-528 -4 0 391 0 391 523 -3 c499 -4
525 -5 600 -26z"/>
<path d="M3860 2197 c0 -675 4 -1104 10 -1157 74 -610 515 -966 1275 -1031
167 -14 453 -6 605 16 359 54 635 177 826 369 181 181 276 392 304 674 7 71
10 455 8 1152 l-3 1045 -387 3 -387 2 -4 -1097 c-2 -987 -4 -1103 -19 -1152
-48 -154 -140 -262 -280 -330 -105 -50 -173 -68 -321 -83 -129 -13 -287 -2
-402 27 -170 43 -325 159 -385 288 -61 129 -60 100 -60 1275 l0 1072 -390 0
-390 0 0 -1073z"/>
<path d="M7847 3263 c-4 -3 -7 -730 -7 -1615 l0 -1608 375 0 375 0 2 1158 3
1159 730 -1159 729 -1158 483 0 483 0 -2 1613 -3 1612 -372 3 -373 2 -2 -1181
-3 -1181 -735 1181 -735 1181 -471 0 c-259 0 -474 -3 -477 -7z"/>
</g>
</svg>
